<?xml version="1.0" encoding="utf-8"?><svg xmlns="http://www.w3.org/2000/svg" xmlns:xlink="http://www.w3.org/1999/xlink"><symbol viewBox="0 0 41 40" id="Behance" xmlns="http://www.w3.org/2000/svg"><g clip-path="url(#aa)" stroke-width=".5"><path d="M34.32 0H5.96C2.72 0 .085 2.628.085 5.86v28.28C.085 37.372 2.72 40 5.96 40h28.36c3.24 0 5.876-2.629 5.876-5.86V5.86C40.196 2.627 37.56 0 34.32 0zm3.526 34.14a3.525 3.525 0 0 1-3.526 3.516H5.96a3.525 3.525 0 0 1-3.525-3.515V5.859A3.525 3.525 0 0 1 5.96 2.344h28.36a3.525 3.525 0 0 1 3.526 3.515v28.282z"/><path d="M18.965 16.484c0-2.585-2.108-4.687-4.7-4.687H7.214v16.406h7.05c2.593 0 4.701-2.102 4.701-4.687A4.67 4.67 0 0 0 17.37 20a4.67 4.67 0 0 0 1.596-3.516zm-2.35 7.032a2.35 2.35 0 0 1-2.35 2.343h-4.7v-4.687h4.7a2.35 2.35 0 0 1 2.35 2.344zm-7.05-4.688v-4.687h4.7a2.35 2.35 0 0 1 2.35 2.343 2.35 2.35 0 0 1-2.35 2.344h-4.7zm17.625-2.344c-3.239 0-5.875 2.629-5.875 5.86 0 3.23 2.636 5.86 5.876 5.86a5.9 5.9 0 0 0 5.089-2.93l-2.035-1.173a3.53 3.53 0 0 1-6.378-.585h9.2v-1.172c0-3.231-2.636-5.86-5.876-5.86zm-3.323 4.688a3.53 3.53 0 0 1 6.648 0h-6.648zm-1.377-9.375h9.402v2.344H22.49v-2.344z"/></g><defs><clipPath id="aa"><path transform="translate(.085)" d="M0 0h40.111v40H0z"/></clipPath></defs></symbol><symbol viewBox="0 0 40 41" id="Dribble" xmlns="http://www.w3.org/2000/svg"><path d="M30.664 7.902l.305-.384-.378-.313A16.673 16.673 0 0 0 19.92 3.36a16.9 16.9 0 0 0-4.097.525l-.727.181.447.602c1.39 1.87 3.388 4.696 5.78 9.122l.207.382.408-.152c4.527-1.68 7.24-4.252 8.725-6.118zm-17.3-2.758l-.246-.323-.366.173c-4.496 2.121-7.903 6.172-9.247 11.119l-.166.61.632.02c2.476.079 8.395-.038 14.952-1.795l.619-.165-.311-.56c-2.543-4.584-4.682-7.518-5.868-9.079zm19.453 4.26l-.388-.462-.381.466c-1.656 2.021-4.531 4.647-9.084 6.428l-.506.198.24.488a72.893 72.893 0 0 1 2.801 6.427l.143.379.4-.061a38.401 38.401 0 0 1 8.637-.323c.56.046.92.099 1.34.16l.276.039.511.072.056-.514a17.619 17.619 0 0 0-4.044-13.298zM20.67 17.03l-.185-.37-.399.113c-7.713 2.19-14.508 2.124-16.624 2.039l-.482-.02-.037.48-.002.035c-.037.476-.074.965-.074 1.485a17.52 17.52 0 0 0 5.835 13.102l.373.334.333-.373a49.729 49.729 0 0 1 3.556-3.608l.002-.001c2.746-2.532 6.28-5.21 10.128-6.38l.517-.157-.196-.503a74.456 74.456 0 0 0-2.745-6.176zm9.49 7.897h-.006a38.167 38.167 0 0 0-3.182.292l-.594.08.185.57c.924 2.844 1.688 5.857 2.181 8.99l.125.79.655-.457a17.322 17.322 0 0 0 6.719-9.386l.165-.57-.59-.066c-1.46-.165-3.31-.331-5.658-.243zm-5.656 1.185l-.154-.453-.46.133c-3.38.984-6.918 3.535-9.598 5.996-1.295 1.178-2.341 2.297-3.18 3.213l-.414.451.524.315c2.545 1.535 5.501 2.438 8.69 2.438a16.85 16.85 0 0 0 6.714-1.397l.348-.15-.051-.376c-.484-3.574-1.339-6.98-2.42-10.17zM.868 20.782c0-10.753 8.567-19.499 19.054-19.499 10.487 0 19.054 8.746 19.054 19.5 0 10.752-8.567 19.498-19.054 19.498C9.435 40.281.868 31.535.868 20.782z"/></symbol><symbol viewBox="0 0 40 41" id="Instagram" xmlns="http://www.w3.org/2000/svg"><path d="M12.166 1.293h.5v-.01h15.905c5.965 0 10.847 4.985 10.847 11.112V29.17c0 6.128-4.883 11.112-10.838 11.112H12.166C6.2 40.281 1.31 35.305 1.31 29.188V12.405c0-6.127 4.89-11.112 10.856-11.112zm-8.848 11.12v16.785c0 4.986 3.928 9.017 8.848 9.017H28.58c4.904 0 8.83-4.032 8.83-9.036V12.405c0-5.004-3.927-9.036-8.839-9.036H12.166c-4.913 0-8.838 4.032-8.848 9.045zm28.084-3.93c0-.59.454-1.038 1.005-1.038.55 0 1.004.448 1.004 1.038 0 .59-.454 1.038-1.004 1.038s-1.004-.448-1.004-1.038zM10.345 20.787c0-5.656 4.525-10.266 10.03-10.266 5.504 0 10.029 4.61 10.029 10.266s-4.525 10.266-10.03 10.266c-5.504 0-10.029-4.61-10.029-10.266zm18.05 0c0-4.534-3.56-8.19-8.02-8.19-4.461 0-8.021 3.656-8.021 8.19 0 4.534 3.56 8.19 8.02 8.19 4.461 0 8.021-3.656 8.021-8.19z"/></symbol><symbol viewBox="0 0 41 41" id="LinkedIn" xmlns="http://www.w3.org/2000/svg"><path d="M34.575.643h-28.4C2.932.643.293 3.275.293 6.51v28.323c0 3.235 2.64 5.868 5.884 5.868h28.399c3.244 0 5.884-2.633 5.884-5.868V6.51c0-3.236-2.64-5.868-5.884-5.868zm3.53 34.19a3.53 3.53 0 0 1-3.53 3.521h-28.4a3.53 3.53 0 0 1-3.53-3.52V6.51a3.53 3.53 0 0 1 3.53-3.521h28.4a3.53 3.53 0 0 1 3.53 3.52v28.324z"/><mask id="da"><path d="M31.42 29.679h-4.312v-7.202c0-.497-.036-.988-.161-1.472-.515-1.999-2.741-1.882-3.627-.935-.445.476-.736 1.014-.748 1.679-.002.158-.012.317-.012.475v7.453h-4.304V16.313h4.302v1.793l.034.015c.03-.041.062-.082.092-.125.432-.598.927-1.13 1.585-1.488.736-.402 1.53-.536 2.356-.512.895.026 1.744.227 2.51.709.98.617 1.579 1.52 1.929 2.604.273.845.362 1.716.363 2.598.002 2.539 0 5.077 0 7.616 0 .05-.004.1-.007.157z"/></mask><path d="M31.42 29.679h-4.312v-7.202c0-.497-.036-.988-.161-1.472-.515-1.999-2.741-1.882-3.627-.935-.445.476-.736 1.014-.748 1.679-.002.158-.012.317-.012.475v7.453h-4.304V16.313h4.302v1.793l.034.015c.03-.041.062-.082.092-.125.432-.598.927-1.13 1.585-1.488.736-.402 1.53-.536 2.356-.512.895.026 1.744.227 2.51.709.98.617 1.579 1.52 1.929 2.604.273.845.362 1.716.363 2.598.002 2.539 0 5.077 0 7.616 0 .05-.004.1-.007.157z"/><path d="M31.42 29.679v.03h.029l.001-.029-.03-.001zm-4.312 0h-.03v.03h.03v-.03zm0-7.202h.031-.03zm-.161-1.472l.03-.008-.03.008zm-3.627-.935l.023.021-.023-.02zm-.748 1.679h-.03.03zm-.012.475h.03-.03zm0 7.453v.031h.03v-.03h-.03zm-4.304 0h-.03v.031h.03v-.03zm0-13.365v-.03h-.03v.03h.03zm4.302 0h.03v-.03h-.03v.03zm0 1.793h-.031v.02l.018.008.012-.028zm.034.015l-.012.028.022.01.015-.02-.025-.018zm.092-.125l.025.018-.025-.018zm1.585-1.488l.015.027-.015-.027zm2.356-.512l.001-.03v.03zm2.51.709l.016-.026-.016.026zm1.929 2.604l-.03.01.03-.01zm.363 2.598h.03-.03zm0 7.616h-.03.03zm-.007.126h-4.312v.061h4.312v-.06zm-4.281.03V29.481h-.061v.198h.061zm0-.198v-7.003h-.06c-.002 2.334-.001 4.669-.001 7.003h.061zm0-7.003c0-.498-.037-.992-.162-1.48l-.06.015c.124.482.161.97.161 1.465h.061zm-.162-1.48c-.261-1.012-.957-1.49-1.7-1.595-.74-.103-1.529.166-1.979.647l.045.042c.435-.466 1.203-.729 1.925-.628.72.1 1.395.563 1.65 1.55l.059-.016zm-3.679-.948c-.448.48-.744 1.025-.756 1.7h.06c.013-.655.3-1.186.74-1.658l-.044-.042zm-.756 1.7c-.003.155-.012.317-.012.475h.06c0-.159.01-.314.013-.474l-.061-.002zm-.012.475l-.001 7.248h.061v-7.248h-.06zm-.001 7.248v.206h.061V29.474h-.061zm.03.175h-4.302v.061h4.303v-.061zm-4.273.03V16.312h-.06v13.365h.06zm-.03-13.334h4.302v-.061h-4.302v.061zm4.27-.03v1.791h.062V16.313h-.061zm.02 1.82l.034.015.024-.056-.034-.015-.025.056zm.07.006l.093-.125-.05-.036-.092.124.05.037zm.093-.126c.43-.597.922-1.123 1.575-1.48l-.03-.053c-.663.362-1.162.897-1.594 1.498l.05.035zm1.575-1.48c.73-.397 1.518-.531 2.34-.508l.002-.06c-.83-.025-1.63.11-2.371.515l.03.054zm2.34-.508c.891.026 1.735.227 2.494.705l.033-.052c-.77-.485-1.626-.688-2.525-.714l-.002.061zm2.494.705c.974.613 1.568 1.51 1.917 2.587l.058-.018c-.352-1.09-.953-2-1.942-2.621l-.033.052zm1.917 2.587c.271.841.36 1.709.361 2.589h.062c-.001-.884-.091-1.759-.365-2.607l-.058.018zm.361 2.589c.002 2.539.001 5.077.001 7.616h.061c0-2.538.002-5.077 0-7.616h-.062zm.001 7.616c0 .049-.005.096-.008.155l.061.003c.003-.055.008-.107.008-.158h-.061z" mask="url(#da)"/><path d="M15.61 29.67h-4.25V16.325h4.25V29.67zM13.67 9.672c.67-.001 1.24.236 1.645.643.404.406.643.982.645 1.659.002.67-.238 1.24-.648 1.644-.41.403-.991.64-1.675.64-1.332.002-2.281-.95-2.284-2.29-.002-1.34.96-2.295 2.316-2.296z"/></symbol><symbol viewBox="0 0 33 20" id="burger" xmlns="http://www.w3.org/2000/svg"><path d="M0 0h33v3.837H0zm0 7.674h33v3.837H0zm0 7.675h33v3.837H0z"/></symbol><symbol viewBox="0 0 23 23" id="close" xmlns="http://www.w3.org/2000/svg"><path d="M2.687 0l19.355 19.355-2.687 2.687L0 2.687z"/><path d="M.831 19.557L20.186.202l2.687 2.687L3.518 22.244z"/></symbol><symbol viewBox="0 0 22 20" id="star" xmlns="http://www.w3.org/2000/svg"><path d="M9.793.86c.3-.92 1.602-.92 1.902 0l1.751 5.374a1 1 0 0 0 .95.69h5.662c.969 0 1.371 1.241.586 1.81l-4.575 3.314a1 1 0 0 0-.364 1.12l1.749 5.367c.3.92-.753 1.687-1.538 1.12l-4.585-3.323a1 1 0 0 0-1.174 0l-4.585 3.322c-.784.568-1.838-.199-1.538-1.12l1.749-5.366a1 1 0 0 0-.364-1.12L.844 8.734c-.785-.569-.383-1.81.587-1.81h5.66a1 1 0 0 0 .951-.69L9.793.859z"/></symbol></svg>